<svg id="Apeiron_mini" xmlns="http://www.w3.org/2000/svg" width="250" height="250" viewBox="0 0 250 250">
  <title>Монтажная область 1</title>
  <g id="main">
    <path id="ap" d="M119.93,107.52,97.18,145.81c-2,3.6-11.49,11-22.3,2l25.91-45s12.38-19.15,27.25,0l26.58,45.05c2.7,4.73,12.16,7.66,20.5,0l-27.71-48c-2.25-3.83-7-6.08-13.51-4.51" fill="none" stroke="#000" stroke-miterlimit="10" stroke-width="8"/>
    <circle id="logo" cx="124.89" cy="142.21" r="13.52"/>
  </g>
  <g id="round2">
    <path d="M106.28,64.16a63.66,63.66,0,0,0,0,121.68" fill="none" stroke="#000" stroke-miterlimit="10" stroke-width="4"/>
    <path d="M143.72,185.84a63.66,63.66,0,0,0,0-121.68" fill="none" stroke="#000" stroke-miterlimit="10" stroke-width="4"/>
  </g>
  <g id="round1">
    <path d="M195.2,105a73,73,0,0,0-140.4,0" fill="none" stroke="#000" stroke-miterlimit="10" stroke-width="4"/>
    <path d="M54.8,145a73,73,0,0,0,140.4,0" fill="none" stroke="#000" stroke-miterlimit="10" stroke-width="4"/>
  </g>
  <text transform="translate(71.13 181.64) rotate(-122.94)" font-size="53" font-family="MinionPro-Regular, Minion Pro">А</text>
  <text transform="translate(53.8 152.31) rotate(-106.43)" font-size="53" font-family="MinionPro-Regular, Minion Pro"> </text>
  <text transform="matrix(-0.14, -0.99, 0.99, -0.14, 50.66, 141.97)" font-size="53" font-family="MinionPro-Regular, Minion Pro"> </text>
  <text transform="translate(46.92 132.5) rotate(-81.18)" font-size="53" font-family="MinionPro-Regular, Minion Pro">П</text>
  <text transform="translate(54.09 96.93) rotate(-63.84)" font-size="53" font-family="MinionPro-Regular, Minion Pro"> </text>
  <text transform="matrix(0.56, -0.83, 0.83, 0.56, 58.77, 87.22)" font-size="53" font-family="MinionPro-Regular, Minion Pro"> </text>
  <text transform="translate(63.35 78.08) rotate(-41.54)" font-size="53" font-family="MinionPro-Regular, Minion Pro">Е</text>
  <text transform="translate(84.8 60.21) rotate(-27.34)" font-size="53" font-family="MinionPro-Regular, Minion Pro"> </text>
  <text transform="translate(94.36 55.17) rotate(-19.16)" font-size="53" font-family="MinionPro-Regular, Minion Pro"> </text>
  <text transform="translate(102.84 49.61) rotate(-1.66)" font-size="53" font-family="MinionPro-Regular, Minion Pro">Й</text>
  <text transform="translate(140.02 50.24) rotate(15.85)" font-size="53" font-family="MinionPro-Regular, Minion Pro"> </text>
  <text transform="translate(150.44 53.11) rotate(24.04)" font-size="53" font-family="MinionPro-Regular, Minion Pro"> </text>
  <text transform="translate(160.22 56) rotate(38.18)" font-size="53" font-family="MinionPro-Regular, Minion Pro">Р</text>
  <text transform="matrix(0.61, 0.79, -0.79, 0.61, 181.46, 73.77)" font-size="53" font-family="MinionPro-Regular, Minion Pro"> </text>
  <text transform="translate(188.14 82.26) rotate(60.38)" font-size="53" font-family="MinionPro-Regular, Minion Pro"> </text>
  <text transform="translate(195.17 89.66) rotate(77.92)" font-size="53" font-family="MinionPro-Regular, Minion Pro">О</text>
  <text transform="translate(201.23 126.03) rotate(95.23)" font-size="53" font-family="MinionPro-Regular, Minion Pro"> </text>
  <text transform="translate(200.33 136.8) rotate(103.38)" font-size="53" font-family="MinionPro-Regular, Minion Pro"> </text>
  <text transform="matrix(-0.52, 0.85, -0.85, -0.52, 200.54, 147.03)" font-size="53" font-family="MinionPro-Regular, Minion Pro">Н</text>
</svg>
