<svg id="Слой_1" data-name="Слой 1" xmlns="http://www.w3.org/2000/svg" viewBox="0 0 1409.36 305"><defs><style>.cls-1,.cls-2,.cls-4{fill:none;}.cls-1,.cls-2,.cls-3,.cls-4{stroke:#000;}.cls-1,.cls-3,.cls-4{stroke-miterlimit:10;}.cls-1,.cls-2,.cls-3{stroke-width:20px;}.cls-2{stroke-linejoin:bevel;}.cls-4{stroke-width:27px;}</style></defs><title>Апейрон_лого</title><path id="A1" class="cls-1" d="M622,233.5H551l-.5,54v-182s8-49,72-45v227" transform="translate(-11.14 -5.5)"/><polyline id="P2" class="cls-1" points="674.36 282 674.36 55 742.86 55 742.86 282"/><polyline id="E3" class="cls-1" points="887.36 55 805.36 55 805.36 216 887.36 216 805.36 216 805.36 272 887.36 272"/><g id="I4"><polyline id="I4_2" class="cls-2" points="939.36 43 939.36 282 1007.36 228 1007.36 282 1007.36 43"/><line id="I4_1" class="cls-3" x1="952.36" y1="10" x2="992.36" y2="10"/></g><path id="R5" class="cls-1" d="M1082.5,287.5V58.5c53-6,67,42,67,42v96s-19,37-67,37" transform="translate(-11.14 -5.5)"/><path id="O6" class="cls-1" d="M1208.5,276.5v-161s5-57,70-53v171S1262.5,274.5,1208.5,276.5Z" transform="translate(-11.14 -5.5)"/><polyline id="N7" class="cls-1" points="1333.36 43 1333.36 282 1333.86 228 1398.86 228 1399.36 282 1399.36 43"/><g id="Logo"><path id="round" class="cls-4" d="M228.5,96.5l-101,170c-9,16-51,49-99,9l115-200s55-85,121,0l118,200c12,21,54,34,91,0l-123-213c-10-17-31-27-60-20" transform="translate(-11.14 -5.5)"/><circle cx="239.36" cy="245" r="60"/></g></svg>