<svg id="Apeiron_mini" xmlns="http://www.w3.org/2000/svg" width="239.4" height="204.91" viewBox="0 0 239.4 204.91">
  <title>Апейрон_меню_лого2</title>
  <g id="main">
    <path id="ap" d="M112.07,103.44,89.32,141.73c-2,3.61-11.49,11-22.3,2l25.9-45s12.39-19.14,27.26,0l26.58,45.05c2.7,4.73,12.16,7.66,20.5,0l-27.71-48c-2.25-3.83-7-6.08-13.51-4.5" transform="translate(2.43 -1.06)" fill="none" stroke="#000" stroke-miterlimit="10" stroke-width="8"/>
    <circle id="logo" cx="119.46" cy="137.08" r="13.52"/>
  </g>
  <g id="round2">
    <path d="M98.54,60.09a63.65,63.65,0,0,0,0,121.67" transform="translate(2.43 -1.06)" fill="none" stroke="#000" stroke-miterlimit="10" stroke-width="4"/>
    <path d="M136,181.76a63.65,63.65,0,0,0,0-121.67" transform="translate(2.43 -1.06)" fill="none" stroke="#000" stroke-miterlimit="10" stroke-width="4"/>
  </g>
  <g id="round1">
    <path d="M187.46,100.92a73,73,0,0,0-140.41,0" transform="translate(2.43 -1.06)" fill="none" stroke="#000" stroke-miterlimit="10" stroke-width="4"/>
    <path d="M47.05,140.92a73,73,0,0,0,140.41,0" transform="translate(2.43 -1.06)" fill="none" stroke="#000" stroke-miterlimit="10" stroke-width="4"/>
  </g>
  <text transform="translate(65.82 176.51) rotate(-122.94)" font-size="53" font-family="MinionPro-Regular, Minion Pro">А</text>
  <text transform="translate(48.49 147.18) rotate(-106.43)" font-size="53" font-family="MinionPro-Regular, Minion Pro"> </text>
  <text transform="matrix(-0.14, -0.99, 0.99, -0.14, 45.35, 136.83)" font-size="53" font-family="MinionPro-Regular, Minion Pro"> </text>
  <text transform="translate(41.6 127.36) rotate(-81.18)" font-size="53" font-family="MinionPro-Regular, Minion Pro">П</text>
  <text transform="translate(48.78 91.8) rotate(-63.84)" font-size="53" font-family="MinionPro-Regular, Minion Pro"> </text>
  <text transform="matrix(0.56, -0.83, 0.83, 0.56, 53.46, 82.09)" font-size="53" font-family="MinionPro-Regular, Minion Pro"> </text>
  <text transform="translate(58.04 72.95) rotate(-41.54)" font-size="53" font-family="MinionPro-Regular, Minion Pro">Е</text>
  <text transform="translate(79.49 55.08) rotate(-27.34)" font-size="53" font-family="MinionPro-Regular, Minion Pro"> </text>
  <text transform="translate(89.05 50.03) rotate(-19.16)" font-size="53" font-family="MinionPro-Regular, Minion Pro"> </text>
  <text transform="translate(97.53 44.48) rotate(-1.66)" font-size="53" font-family="MinionPro-Regular, Minion Pro">Й</text>
  <text transform="translate(134.71 45.11) rotate(15.85)" font-size="53" font-family="MinionPro-Regular, Minion Pro"> </text>
  <text transform="translate(145.13 47.98) rotate(24.04)" font-size="53" font-family="MinionPro-Regular, Minion Pro"> </text>
  <text transform="translate(154.91 50.87) rotate(38.18)" font-size="53" font-family="MinionPro-Regular, Minion Pro">Р</text>
  <text transform="matrix(0.61, 0.79, -0.79, 0.61, 176.15, 68.64)" font-size="53" font-family="MinionPro-Regular, Minion Pro"> </text>
  <text transform="translate(182.83 77.13) rotate(60.38)" font-size="53" font-family="MinionPro-Regular, Minion Pro"> </text>
  <text transform="translate(189.86 84.53) rotate(77.92)" font-size="53" font-family="MinionPro-Regular, Minion Pro">О</text>
  <text transform="translate(195.92 120.9) rotate(95.23)" font-size="53" font-family="MinionPro-Regular, Minion Pro"> </text>
  <text transform="translate(195.02 131.67) rotate(103.38)" font-size="53" font-family="MinionPro-Regular, Minion Pro"> </text>
  <text transform="matrix(-0.52, 0.85, -0.85, -0.52, 195.23, 141.9)" font-size="53" font-family="MinionPro-Regular, Minion Pro">Н</text>
</svg>
