<svg id="Слой_1" data-name="Слой 1" xmlns="http://www.w3.org/2000/svg" xmlns:xlink="http://www.w3.org/1999/xlink" viewBox="0 0 1760 428"><defs><style>.cls-1,.cls-2,.cls-4{fill:none;}.cls-1,.cls-2{stroke:#ff931e;stroke-width:20px;}.cls-1,.cls-4{stroke-miterlimit:10;}.cls-2{stroke-linejoin:bevel;}.cls-3{fill:url(#Новый_образец_градиента_4);}.cls-4{stroke-width:27px;stroke:url(#Новый_образец_градиента_1);}.cls-5{fill:url(#Новый_образец_градиента_3);}</style><linearGradient id="Новый_образец_градиента_4" y1="406" x2="1760" y2="406" gradientUnits="userSpaceOnUse"><stop offset="0" stop-color="#fff"/><stop offset="0.06" stop-color="#ffe9d2"/><stop offset="0.14" stop-color="#ffd5a8"/><stop offset="0.22" stop-color="#ffc383"/><stop offset="0.3" stop-color="#ffb463"/><stop offset="0.39" stop-color="#ffa84a"/><stop offset="0.49" stop-color="#ff9f36"/><stop offset="0.6" stop-color="#ff9828"/><stop offset="0.75" stop-color="#ff9420"/><stop offset="1" stop-color="#ff931e"/></linearGradient><radialGradient id="Новый_образец_градиента_1" cx="428.87" cy="494.06" r="197.33" gradientUnits="userSpaceOnUse"><stop offset="0" stop-color="#ffffa5"/><stop offset="0.15" stop-color="#ffdf7d"/><stop offset="0.32" stop-color="#ffc45b"/><stop offset="0.48" stop-color="#ffae40"/><stop offset="0.65" stop-color="#ff9f2d"/><stop offset="0.82" stop-color="#ff9622"/><stop offset="1" stop-color="#ff931e"/></radialGradient><linearGradient id="Новый_образец_градиента_3" x1="305" y1="245" x2="425" y2="245" gradientUnits="userSpaceOnUse"><stop offset="0" stop-color="#fff"/><stop offset="0.09" stop-color="#ffedd8"/><stop offset="0.21" stop-color="#ffd5a7"/><stop offset="0.33" stop-color="#ffc17d"/><stop offset="0.46" stop-color="#ffb05b"/><stop offset="0.59" stop-color="#ffa340"/><stop offset="0.72" stop-color="#ff9a2d"/><stop offset="0.86" stop-color="#ff9522"/><stop offset="1" stop-color="#ff931e"/></linearGradient></defs><title>Апейрон_лого — копия</title><path id="A1" class="cls-1" d="M800,560.5H729l-.5,54v-182s8-49,72-45v227" transform="translate(-63.5 -332.5)"/><polyline id="P2" class="cls-1" points="800 282 800 55 868.5 55 868.5 282"/><polyline id="E3" class="cls-1" points="1013 55 931 55 931 216 1013 216 931 216 931 272 1013 272"/><g id="I4"><polyline id="I4_2" class="cls-2" points="1065 43 1065 282 1133 228 1133 282 1133 43"/><line id="I4_1" class="cls-1" x1="1078" y1="10" x2="1118" y2="10"/></g><path id="R5" class="cls-1" d="M1260.5,614.5v-229c53-6,67,42,67,42v96s-19,37-67,37" transform="translate(-63.5 -332.5)"/><path id="O6" class="cls-1" d="M1386.5,603.5v-161s5-57,70-53v171S1440.5,601.5,1386.5,603.5Z" transform="translate(-63.5 -332.5)"/><polyline id="N7" class="cls-1" points="1459 43 1459 282 1459.5 228 1524.5 228 1525 282 1525 43"/><polygon id="Line" class="cls-3" points="1760 407 0 428 0 384 1760 407"/><path id="round" class="cls-4" d="M406.5,423.5l-101,170c-9,16-51,49-99,9l115-200s55-85,121,0l118,200c12,21,54,34,91,0l-123-213c-10-17-31-27-60-20" transform="translate(-63.5 -332.5)"/><circle id="logo" class="cls-5" cx="365" cy="245" r="60"/></svg>